<?xml version="1.0" encoding="UTF-8" standalone="no"?>
<svg
   xmlns:dc="http://purl.org/dc/elements/1.1/"
   xmlns:cc="http://creativecommons.org/ns#"
   xmlns:rdf="http://www.w3.org/1999/02/22-rdf-syntax-ns#"
   xmlns:svg="http://www.w3.org/2000/svg"
   xmlns="http://www.w3.org/2000/svg"
   viewBox="0 0 517.17334 449.12"
   height="449.12"
   width="517.17334"
   xml:space="preserve"
   id="svg2"
   version="1.1"><metadata
     id="metadata8"><rdf:RDF><cc:Work
         rdf:about=""><dc:format>image/svg+xml</dc:format><dc:type
           rdf:resource="http://purl.org/dc/dcmitype/StillImage" /></cc:Work></rdf:RDF></metadata><defs
     id="defs6"><radialGradient
       id="radialGradient22"
       spreadMethod="pad"
       gradientTransform="matrix(491.115,115.936,115.936,-491.115,2239.59,2281.39)"
       gradientUnits="userSpaceOnUse"
       r="1"
       cy="0"
       cx="0"
       fy="0"
       fx="0"><stop
         id="stop18"
         offset="0"
         style="stop-opacity:1;stop-color:#fff200" /><stop
         id="stop20"
         offset="1"
         style="stop-opacity:1;stop-color:#f47216" /></radialGradient><radialGradient
       id="radialGradient38"
       spreadMethod="pad"
       gradientTransform="matrix(425.7,-425.7,-425.7,-425.7,2207.58,2265.51)"
       gradientUnits="userSpaceOnUse"
       r="1"
       cy="0"
       cx="0"
       fy="0"
       fx="0"><stop
         id="stop32"
         offset="0"
         style="stop-opacity:1;stop-color:#f7f34c" /><stop
         id="stop34"
         offset="0.77"
         style="stop-opacity:1;stop-color:#f68512" /><stop
         id="stop36"
         offset="1"
         style="stop-opacity:1;stop-color:#f16820" /></radialGradient></defs><g
     transform="matrix(1.3333333,0,0,-1.3333333,0,449.12)"
     id="g10"><g
       transform="scale(0.1)"
       id="g12"><path
         id="path14"
         style="fill:#ffffff;fill-opacity:1;fill-rule:evenodd;stroke:none"
         d="M 1163.82,3368.37 H 3252.89 V 1359.86 c 0,-320.93 -262.01,-583.911 -583.13,-583.911 H 580.703 l -0.047,2008.521 c 0,320.97 262.024,583.9 583.164,583.9 z M 1749.04,355.602 c -0.18,-1.161 -0.21,-2.661 -0.21,-3.551 0,-0.891 0.03,-2.403 0.21,-3.563 2.74,-1.769 7.22,-1.859 10.13,-1.859 3.66,0 7.19,0.191 10.19,2.141 0.13,1.14 0.15,2.441 0.15,3.281 0,0.89 -0.03,2.39 -0.21,3.551 -2.73,1.777 -7.23,1.867 -10.13,1.867 -2.9,0 -7.4,-0.09 -10.13,-1.867 z m -615.58,-18.2 h -27.3 v -56.871 l 13.66,-1.031 13.64,1.031 v 56.871 z m 2315.01,44.758 v -51.308 l 19.86,24.937 -19.86,26.371 z m 0,206.391 h 423.65 v -160.34 l -46.92,-5.77 -49.25,-64.429 54.43,-72.75 h 48.45 V 115.551 H 3448.47 V 103.16 h -153 l -2.8,12.391 H 2826.45 L 2775.67,0 l -49.7,115.551 h -329.93 v -15.34 h -158.37 l -2.23,15.34 H 1924.9 v 48.578 c -47.91,-36.527 -105.24,-52.117 -165.73,-52.117 -55.61,0 -108.57,13.179 -153.99,43.707 V 115.551 H 844.051 v 163.801 l 15.644,1.179 v 56.871 H 840.578 V 103.16 H 687.574 l -2.801,12.391 H 376.133 V 251.352 C 347.441,236.309 315.141,229.43 281.398,229.43 H 277.75 V 115.551 H 0 v 163.801 l 15.6367,1.179 V 423.5 L 0,424.672 v 163.879 h 281.398 c 33.743,0 66.043,-6.891 94.735,-21.93 v 21.93 h 304.949 l 2.805,16.508 h 221.926 l 2.246,-16.508 h 149.671 l 2.23,16.508 h 159.1 v -16.508 h 184.63 c 50.18,0 102.32,-9.481 141.89,-42.551 9.51,-7.961 17.7,-16.75 24.65,-26.199 4.26,4.219 8.73,8.32 13.41,12.289 49.78,42.172 110.86,59.992 175.53,59.992 60.47,0 117.79,-15.59 165.73,-52.113 v 48.582 h 277.75 V 424.68 l -15.64,-1.168 v -73.34 h 47.7 l 2.23,16.508 h 82.54 v 56.82 l -15.65,1.172 v 163.879 h 985.14 l 2.81,16.508 h 156.69 v -16.508 0" /><path
         id="path16"
         style="fill:#275bb2;fill-opacity:1;fill-rule:evenodd;stroke:none"
         d="m 3575.62,196.871 h -129.1 v 7.07 c 3.35,0 7.64,3.348 12.86,10.028 L 3571.15,354.41 3467.2,492.469 c -3.72,5.121 -8.01,7.672 -12.86,7.672 v 7.089 h 130.8 v -7.089 c -8.95,-0.391 -13.42,-2.95 -13.42,-7.672 0,-1.559 7.83,-12.188 23.47,-31.86 17.88,-22.418 27.21,-34.218 27.94,-35.398 0.76,1.18 10.44,13.18 29.08,35.988 14.9,18.891 22.35,29.313 22.35,31.27 0,5.121 -3.92,7.672 -11.74,7.672 v 7.089 h 127.99 v -7.089 c -6.34,-0.782 -10.99,-3.129 -13.98,-7.071 L 3674.01,358.539 3787.45,206.898 c 1.5,-1.968 4.84,-2.957 10.07,-2.957 v -7.07 h -130.78 v 7.07 c 7.07,0 10.61,0.989 10.61,2.957 0,2.75 -18.45,29.704 -55.33,80.832 -1.12,-1.57 -12.11,-14.941 -32.98,-40.121 -17.89,-21.629 -26.82,-34.019 -26.82,-37.168 0,-4.332 4.47,-6.5 13.4,-6.5 z M 3298.41,402.199 V 310.16 h -6.71 c -1.87,9.039 -7.45,13.57 -16.77,13.57 h -110.11 v -54.871 h 185.57 c 4.84,0 8.19,5.891 10.06,17.7 h 6.71 V 184.48 h -6.71 c -1.87,8.262 -5.22,12.391 -10.06,12.391 h -285.05 v 7.07 c 10.43,0.399 15.65,3.938 15.65,10.618 V 489.52 c 0,5.91 -5.22,9.449 -15.65,10.621 v 7.089 h 285.05 c 4.84,0 8.19,5.512 10.06,16.508 h 6.71 V 421.082 h -6.71 c -1.87,11.008 -5.22,16.52 -10.06,16.52 h -185.57 v -48.973 h 110.11 c 9.32,0 14.9,4.519 16.77,13.57 h 6.71 z m -325.2,-205.328 h -111.78 v 7.07 c 10.43,0.789 15.64,4.34 15.64,10.618 v 218.32 l -100.6,-228.938 -99.48,231.301 v 0 -220.683 c 0,-6.278 5.22,-9.829 15.66,-10.618 v -7.07 h -98.38 v 7.07 c 10.44,0.789 15.65,4.34 15.65,10.618 V 489.52 c 0,6.3 -5.21,9.839 -15.65,10.621 v 7.089 h 145.87 v -7.089 c -8.94,-0.391 -13.41,-3.922 -13.41,-10.621 0,-1.571 8.01,-21.239 24.03,-59 17.52,-40.52 27.01,-63.129 28.51,-67.848 3.73,8.648 16.2,36.187 37.45,82.598 12.3,26.359 18.44,41.109 18.44,44.25 0,6.699 -4.47,10.23 -13.41,10.621 v 7.089 h 151.46 v -7.089 c -10.43,-0.782 -15.64,-4.321 -15.64,-10.621 V 214.559 c 0,-6.278 5.21,-9.829 15.64,-10.618 v -7.07 z m -472.92,0 h -115.14 v 7.07 c 10.43,0.789 15.64,4.34 15.64,10.618 V 489.52 c 0,6.3 -5.21,9.839 -15.64,10.621 v 7.089 h 115.14 v -7.089 c -10.43,-0.782 -15.66,-4.321 -15.66,-10.621 V 214.559 c 0,-6.278 5.23,-9.829 15.66,-10.618 v -7.07 z M 2105.69,489.52 V 268.859 h 192.26 c 5.23,0 8.58,5.493 10.07,16.512 h 6.71 v -103.84 h -6.71 c -1.49,10.219 -4.84,15.34 -10.07,15.34 h -291.74 v 7.07 c 10.43,0.789 15.65,4.34 15.65,10.618 V 489.52 c 0,6.3 -5.22,9.839 -15.65,10.621 v 7.089 h 115.13 v -7.089 c -10.42,-0.782 -15.65,-4.321 -15.65,-10.621 z m -346.52,21.25 c 49.93,0 90.91,-13.579 122.96,-40.711 34.27,-29.11 51.42,-68.45 51.42,-118.008 0,-49.563 -17.15,-88.903 -51.42,-118.012 -32.05,-27.141 -73.03,-40.719 -122.96,-40.719 -49.93,0 -90.93,13.578 -122.96,40.719 -34.29,29.109 -51.42,68.449 -51.42,118.012 0,49.558 17.13,88.898 51.42,118.008 32.03,27.132 73.03,40.711 122.96,40.711 z m 0,-71.981 c -25.72,0 -47.13,-7.469 -64.28,-22.43 -18.25,-16.129 -27.38,-37.558 -27.38,-64.308 0,-26.75 9.13,-48.192 27.38,-64.321 17.15,-14.941 38.56,-22.421 64.28,-22.421 25.7,0 47.41,7.773 65.11,23.312 17.7,15.539 26.54,36.68 26.54,63.43 0,26.75 -9.12,48.179 -27.38,64.308 -17.14,14.961 -38.57,22.43 -64.27,22.43 z m -460.54,2.363 v -64.914 h 93.89 c 28.69,0 43.04,10.813 43.04,32.453 0,21.641 -14.35,32.461 -43.04,32.461 h -93.89 z m 0,-127.461 v -99.132 c 0,-6.278 5.21,-9.829 15.63,-10.618 v -7.07 h -115.12 v 7.07 c 10.44,0.789 15.64,4.34 15.64,10.618 V 489.52 c 0,6.3 -5.2,9.839 -15.64,10.621 v 7.089 h 204.55 c 40.99,0 70.89,-7.871 89.71,-23.601 18.81,-15.731 28.22,-40.52 28.22,-74.348 0,-48.769 -26.64,-81.031 -79.92,-96.761 l 65.96,-97.961 c 4.84,-7.071 10.24,-10.618 16.2,-10.618 v -7.07 h -116.25 v 7.07 c 8.2,0.789 12.3,4.34 12.3,10.618 0,1.972 -10.25,17.703 -30.75,47.211 -22.35,32.261 -34.27,49.562 -35.76,51.921 h -54.77 z M 1040.5,196.871 H 925.363 v 7.07 c 10.434,0.789 15.649,4.34 15.649,10.618 v 220.683 h -96.145 c -5.199,0 -8.566,-5.512 -10.062,-16.523 h -6.7 v 105.019 h 6.7 c 1.496,-10.996 4.863,-16.508 10.062,-16.508 h 276.113 c 5.21,0 8.56,5.512 10.05,16.508 h 6.72 V 418.719 h -6.72 c -1.49,11.011 -4.84,16.523 -10.05,16.523 h -96.13 V 214.559 c 0,-6.278 5.21,-9.829 15.65,-10.618 v -7.07 z M 690.527,402.199 V 310.16 h -6.718 c -1.86,9.039 -7.454,13.57 -16.762,13.57 H 556.93 v -54.871 h 185.574 c 4.84,0 8.184,5.891 10.051,17.7 h 6.711 V 184.48 h -6.711 c -1.867,8.262 -5.211,12.391 -10.051,12.391 H 457.445 v 7.07 c 10.434,0.399 15.657,3.938 15.657,10.618 V 489.52 c 0,5.91 -5.223,9.449 -15.657,10.621 v 7.089 h 285.059 c 4.84,0 8.184,5.512 10.051,16.508 h 6.711 V 421.082 h -6.711 c -1.867,11.008 -5.211,16.52 -10.051,16.52 H 556.93 v -48.973 h 110.117 c 9.308,0 14.902,4.519 16.762,13.57 h 6.718 z m -509.726,38.953 v -67.863 h 84.953 c 30.164,0 45.266,11.801 45.266,35.402 0,21.641 -15.102,32.461 -45.266,32.461 h -84.953 z m 0,-130.402 v -96.191 c 0,-6.278 5.211,-9.829 15.633,-10.618 v -7.07 H 81.3125 v 7.07 c 10.4375,0.789 15.6367,4.34 15.6367,10.618 V 489.52 c 0,6.3 -5.1992,9.839 -15.6367,10.621 v 7.089 H 281.398 c 33.536,0 60.172,-9.839 79.915,-29.5 17.902,-18.101 26.835,-41.101 26.835,-69.039 0,-27.929 -8.933,-50.742 -26.835,-68.449 C 341.57,320.582 314.934,310.75 281.398,310.75 H 180.801 v 0" /><path
         id="path24"
         style="fill:url(#radialGradient22);fill-opacity:1;fill-rule:evenodd;stroke:none"
         d="m 2469.87,2644.95 c -95.61,-658.39 -726.88,-178.78 -746.31,-713.88 0,-170.84 134.1,-313.79 313.55,-313.79 h 39.19 c 647.81,0 905.92,975.2 335.73,1277.13 25.64,-110.2 57.84,-132.41 57.84,-249.46" /><path
         id="path26"
         style="fill:#f47216;fill-opacity:1;fill-rule:evenodd;stroke:none"
         d="M 1292.41,2861.75 V 1107.37 h 881.88 c -52.34,87.65 -81.77,155.89 -108.37,237.15 -20.69,63.18 -23.33,130.12 -25.43,197.34 l -62.18,-0.82 c -143.64,0 -333.14,190.61 -333.14,335.1 v 19.71 c 0,614.04 744.69,262.66 744.69,709.64 0,165.82 -57.5,394.24 -274.36,394.24 h -725.1 c -63.35,0 -97.99,-71.55 -97.99,-137.98" /><path
         id="path28"
         style="fill:#275bb2;fill-opacity:1;fill-rule:evenodd;stroke:none"
         d="m 1163.82,3287.05 c -275.968,0 -501.847,-226.16 -501.847,-502.58 l 0.043,-1927.2 H 2669.76 c 275.99,0 501.81,226.26 501.81,502.59 V 3287.05 H 1163.82" /><path
         id="path30"
         style="fill:#f3681f;fill-opacity:1;fill-rule:evenodd;stroke:none"
         d="m 2022.69,3005.02 c -1.05,0 -2.25,-0.15 -3.53,-0.15 -0.56,0 -0.97,0.15 -1.48,0.15 h -613.22 c -65.01,0 -118.43,-49.38 -124.83,-112.69 -0.35,-4.28 -0.61,-8.52 -0.61,-12.94 V 1109.5 h 890.13 c -89.81,113.53 -143.44,257.08 -143.44,413.15 0,7.58 0.18,15.08 0.4,22.54 -6.03,-0.36 -12.15,-0.55 -18.18,-0.55 -212.64,0 -385.08,172.64 -385.08,385.49 0,212.93 172.44,385.52 385.08,385.52 5.38,0 10.67,-0.2 15.98,-0.4 2.2,0.08 4.28,0.4 6.6,0.4 0.46,0.07 1.26,0.19 2.05,0.27 60.07,1.74 116.31,18.72 164.9,47.43 89.3,50.97 140.17,134.61 159.39,211.34 7.11,28.02 10.2,56.14 10.09,83.76 0,0.63 0.11,1.35 0.11,1.85 0,190.39 -154.13,344.72 -344.36,344.72" /><path
         id="path40"
         style="fill:url(#radialGradient38);fill-opacity:1;fill-rule:evenodd;stroke:none"
         d="m 2033.8,1625.55 h 1.9 c 419.99,0 674.23,377.86 674.23,656.49 v 0 c 0,261.93 -105.34,479.22 -335.39,623.42 v 0 c 0,0 98.84,-136.82 69.24,-315.62 v 0 c -21.79,-132.05 -143.06,-352.99 -421.1,-356.53 v 0 c -4.08,0.21 -8.77,0.21 -13.99,0 v 0 h -0.56 c -167.37,0 -302.9,-135.82 -302.9,-303.18 v -1.9 c 0.03,-3.02 0.13,-6 0.28,-8.91 v 0 c -0.05,-2.5 -0.24,-4.85 -0.28,-7.23 v -0.86 -0.06 c 0.07,-0.42 0.56,-3.28 1.28,-8.26 v 0 c 13.34,-151.03 137.49,-270.16 290.61,-275.47 v 0 c 11.75,-1.07 23.87,-1.82 36.68,-1.89" /></g></g></svg>